<mxfile host="app.diagrams.net" agent="Mozilla/5.0 (Windows NT 10.0; Win64; x64) AppleWebKit/537.36 (KHTML, like Gecko) Chrome/138.0.0.0 Safari/537.36" version="27.1.6">
  <diagram name="Page-1" id="QQDNLn78gGAncxl4rF0j">
    <mxGraphModel dx="1412" dy="737" grid="1" gridSize="10" guides="1" tooltips="1" connect="1" arrows="1" fold="1" page="1" pageScale="1" pageWidth="850" pageHeight="1100" math="0" shadow="0">
      <root>
        <mxCell id="0" />
        <mxCell id="1" parent="0" />
        <mxCell id="4ue2BC80ouedhr11Rr5F-20" value="" style="endArrow=none;html=1;rounded=0;exitX=0.12;exitY=0.09;exitDx=0;exitDy=0;exitPerimeter=0;entryX=0.08;entryY=0.05;entryDx=0;entryDy=0;entryPerimeter=0;strokeWidth=10;" edge="1" parent="1">
          <mxGeometry width="50" height="50" relative="1" as="geometry">
            <mxPoint x="430" y="70" as="sourcePoint" />
            <mxPoint x="584" y="198" as="targetPoint" />
          </mxGeometry>
        </mxCell>
        <mxCell id="4ue2BC80ouedhr11Rr5F-19" value="" style="endArrow=none;html=1;rounded=0;exitX=0.12;exitY=0.09;exitDx=0;exitDy=0;exitPerimeter=0;entryX=0.08;entryY=0.05;entryDx=0;entryDy=0;entryPerimeter=0;strokeWidth=10;" edge="1" parent="1" source="4ue2BC80ouedhr11Rr5F-1" target="4ue2BC80ouedhr11Rr5F-16">
          <mxGeometry width="50" height="50" relative="1" as="geometry">
            <mxPoint x="673" y="140" as="sourcePoint" />
            <mxPoint x="530" y="269" as="targetPoint" />
          </mxGeometry>
        </mxCell>
        <mxCell id="4ue2BC80ouedhr11Rr5F-18" value="" style="endArrow=none;html=1;rounded=0;exitX=0.88;exitY=0.09;exitDx=0;exitDy=0;exitPerimeter=0;entryX=1;entryY=0;entryDx=0;entryDy=0;entryPerimeter=0;strokeWidth=10;" edge="1" parent="1">
          <mxGeometry width="50" height="50" relative="1" as="geometry">
            <mxPoint x="573" y="70" as="sourcePoint" />
            <mxPoint x="430" y="199" as="targetPoint" />
          </mxGeometry>
        </mxCell>
        <mxCell id="4ue2BC80ouedhr11Rr5F-17" value="" style="endArrow=none;html=1;rounded=0;exitX=0.12;exitY=0.09;exitDx=0;exitDy=0;exitPerimeter=0;entryX=0.08;entryY=0.05;entryDx=0;entryDy=0;entryPerimeter=0;strokeWidth=10;" edge="1" parent="1">
          <mxGeometry width="50" height="50" relative="1" as="geometry">
            <mxPoint x="410" y="77" as="sourcePoint" />
            <mxPoint x="411" y="210" as="targetPoint" />
          </mxGeometry>
        </mxCell>
        <mxCell id="4ue2BC80ouedhr11Rr5F-12" value="" style="endArrow=none;html=1;rounded=0;exitX=0.88;exitY=0.09;exitDx=0;exitDy=0;exitPerimeter=0;entryX=1;entryY=0;entryDx=0;entryDy=0;entryPerimeter=0;strokeWidth=10;" edge="1" parent="1" source="4ue2BC80ouedhr11Rr5F-11" target="4ue2BC80ouedhr11Rr5F-7">
          <mxGeometry width="50" height="50" relative="1" as="geometry">
            <mxPoint x="600" y="180" as="sourcePoint" />
            <mxPoint x="704" y="309" as="targetPoint" />
          </mxGeometry>
        </mxCell>
        <mxCell id="4ue2BC80ouedhr11Rr5F-10" value="" style="endArrow=none;html=1;rounded=0;exitX=0.12;exitY=0.09;exitDx=0;exitDy=0;exitPerimeter=0;entryX=0.08;entryY=0.05;entryDx=0;entryDy=0;entryPerimeter=0;strokeWidth=10;" edge="1" parent="1" source="4ue2BC80ouedhr11Rr5F-1" target="4ue2BC80ouedhr11Rr5F-7">
          <mxGeometry width="50" height="50" relative="1" as="geometry">
            <mxPoint x="420" y="280" as="sourcePoint" />
            <mxPoint x="470" y="230" as="targetPoint" />
          </mxGeometry>
        </mxCell>
        <mxCell id="4ue2BC80ouedhr11Rr5F-1" value="" style="shape=mxgraph.cisco.security.router_firewall;sketch=0;html=1;pointerEvents=1;dashed=0;fillColor=#036897;strokeColor=#ffffff;strokeWidth=2;verticalLabelPosition=bottom;verticalAlign=top;align=center;outlineConnect=0;" vertex="1" parent="1">
          <mxGeometry x="381.00000000000006" y="60" width="78" height="62" as="geometry" />
        </mxCell>
        <mxCell id="4ue2BC80ouedhr11Rr5F-2" value="" style="endArrow=none;html=1;rounded=0;strokeWidth=7;" edge="1" parent="1">
          <mxGeometry width="50" height="50" relative="1" as="geometry">
            <mxPoint x="160" y="1090" as="sourcePoint" />
            <mxPoint x="160" y="10" as="targetPoint" />
          </mxGeometry>
        </mxCell>
        <mxCell id="4ue2BC80ouedhr11Rr5F-3" value="" style="endArrow=none;html=1;rounded=0;strokeWidth=7;" edge="1" parent="1">
          <mxGeometry width="50" height="50" relative="1" as="geometry">
            <mxPoint x="830" y="340" as="sourcePoint" />
            <mxPoint x="20" y="340" as="targetPoint" />
          </mxGeometry>
        </mxCell>
        <mxCell id="4ue2BC80ouedhr11Rr5F-5" value="&lt;font style=&quot;font-size: 24px;&quot;&gt;Core&lt;/font&gt;" style="text;html=1;align=center;verticalAlign=middle;whiteSpace=wrap;rounded=0;" vertex="1" parent="1">
          <mxGeometry x="50" y="165" width="60" height="30" as="geometry" />
        </mxCell>
        <mxCell id="4ue2BC80ouedhr11Rr5F-6" value="&lt;font style=&quot;font-size: 24px;&quot;&gt;Distro&lt;/font&gt;" style="text;html=1;align=center;verticalAlign=middle;whiteSpace=wrap;rounded=0;" vertex="1" parent="1">
          <mxGeometry x="50" y="430" width="60" height="30" as="geometry" />
        </mxCell>
        <mxCell id="4ue2BC80ouedhr11Rr5F-7" value="" style="shape=mxgraph.cisco.switches.layer_3_switch;sketch=0;html=1;pointerEvents=1;dashed=0;fillColor=#036897;strokeColor=#ffffff;strokeWidth=2;verticalLabelPosition=bottom;verticalAlign=top;align=center;outlineConnect=0;" vertex="1" parent="1">
          <mxGeometry x="385" y="195" width="80" height="80" as="geometry" />
        </mxCell>
        <mxCell id="4ue2BC80ouedhr11Rr5F-8" value="Inner Switch" style="text;html=1;align=center;verticalAlign=middle;whiteSpace=wrap;rounded=0;fontSize=18;" vertex="1" parent="1">
          <mxGeometry x="240" y="210" width="70" height="50" as="geometry" />
        </mxCell>
        <mxCell id="4ue2BC80ouedhr11Rr5F-13" value="FW-03 HA Pair" style="swimlane;whiteSpace=wrap;html=1;" vertex="1" parent="1">
          <mxGeometry x="350" width="300" height="160" as="geometry" />
        </mxCell>
        <mxCell id="4ue2BC80ouedhr11Rr5F-21" value="" style="endArrow=none;html=1;rounded=0;exitX=0.12;exitY=0.09;exitDx=0;exitDy=0;exitPerimeter=0;entryX=0.08;entryY=0.05;entryDx=0;entryDy=0;entryPerimeter=0;strokeWidth=10;" edge="1" parent="4ue2BC80ouedhr11Rr5F-13">
          <mxGeometry width="50" height="50" relative="1" as="geometry">
            <mxPoint x="237.5" y="101" as="sourcePoint" />
            <mxPoint x="238.5" y="234" as="targetPoint" />
          </mxGeometry>
        </mxCell>
        <mxCell id="4ue2BC80ouedhr11Rr5F-22" value="" style="endArrow=none;html=1;rounded=0;exitX=0.12;exitY=0.09;exitDx=0;exitDy=0;exitPerimeter=0;entryX=0.08;entryY=0.05;entryDx=0;entryDy=0;entryPerimeter=0;strokeWidth=10;" edge="1" parent="4ue2BC80ouedhr11Rr5F-13">
          <mxGeometry width="50" height="50" relative="1" as="geometry">
            <mxPoint x="217.5" y="90" as="sourcePoint" />
            <mxPoint x="218.5" y="223" as="targetPoint" />
          </mxGeometry>
        </mxCell>
        <mxCell id="4ue2BC80ouedhr11Rr5F-14" value="Outer&lt;div&gt;Switch/Router&lt;/div&gt;" style="text;html=1;align=center;verticalAlign=middle;whiteSpace=wrap;rounded=0;fontSize=18;" vertex="1" parent="1">
          <mxGeometry x="180" y="66" width="140" height="50" as="geometry" />
        </mxCell>
        <mxCell id="4ue2BC80ouedhr11Rr5F-15" value="(New 4650)" style="text;html=1;align=center;verticalAlign=middle;whiteSpace=wrap;rounded=0;" vertex="1" parent="1">
          <mxGeometry x="730" y="220" width="90" height="30" as="geometry" />
        </mxCell>
        <mxCell id="4ue2BC80ouedhr11Rr5F-16" value="" style="shape=mxgraph.cisco.switches.layer_3_switch;sketch=0;html=1;pointerEvents=1;dashed=0;fillColor=#036897;strokeColor=#ffffff;strokeWidth=2;verticalLabelPosition=bottom;verticalAlign=top;align=center;outlineConnect=0;" vertex="1" parent="1">
          <mxGeometry x="538" y="190" width="80" height="80" as="geometry" />
        </mxCell>
        <mxCell id="4ue2BC80ouedhr11Rr5F-11" value="" style="shape=mxgraph.cisco.security.router_firewall;sketch=0;html=1;pointerEvents=1;dashed=0;fillColor=#036897;strokeColor=#ffffff;strokeWidth=2;verticalLabelPosition=bottom;verticalAlign=top;align=center;outlineConnect=0;" vertex="1" parent="1">
          <mxGeometry x="539" y="60" width="78" height="62" as="geometry" />
        </mxCell>
      </root>
    </mxGraphModel>
  </diagram>
</mxfile>
